<svg width="224" height="47" viewBox="0 0 224 47" fill="none" xmlns="http://www.w3.org/2000/svg">
<rect width="224" height="47" fill="white"/>
<path d="M105.16 7.48924C104.292 7.11483 103.239 6.92763 101.689 6.80283C100.449 6.74043 98.961 6.74043 97.2252 6.74043C95.4274 6.74043 94.0635 6.74043 92.8237 6.80283C88.4841 7.11484 86.8723 8.92448 86.8723 13.5422V22.7152C86.8723 24.8369 87.1823 27.3953 89.538 28.5186C91.2738 29.3922 93.6296 29.3922 97.2252 29.3922C98.961 29.3922 100.449 29.3922 101.689 29.3298C103.115 29.2674 104.23 29.0178 105.16 28.6434C107.268 27.7697 108.322 25.7729 108.322 22.5904V13.4174C108.26 10.4221 107.206 8.42527 105.16 7.48924ZM104.478 13.6046V22.6528C104.478 24.7745 104.106 24.9617 103.61 25.1489C102.743 25.5233 100.573 25.5857 97.9071 25.5857H96.6052C93.6916 25.5857 91.8938 25.5233 91.2738 25.2113C91.0259 25.0865 90.6539 24.8993 90.6539 22.6528V13.6046C90.6539 11.3581 91.0259 11.1709 91.2118 11.0461C91.8938 10.6717 93.6916 10.6093 96.6052 10.6093H97.9071C100.573 10.6093 102.681 10.6717 103.61 11.0461C104.044 11.2333 104.478 11.4205 104.478 13.6046Z" fill="#414042"/>
<path d="M129.524 6.92764H111.236C110.182 6.92764 109.314 7.80126 109.314 8.86208C109.314 9.92291 110.182 10.7965 111.236 10.7965H118.365V27.5201C118.365 28.581 119.233 29.4546 120.287 29.4546C121.341 29.4546 122.208 28.581 122.208 27.5201V10.7341H129.586C130.64 10.7341 131.507 9.86051 131.507 8.79968C131.383 7.73886 130.578 6.92764 129.524 6.92764Z" fill="#414042"/>
<path d="M151.283 7.48924C150.415 7.11483 149.361 6.92763 147.812 6.80283C146.572 6.74043 145.084 6.74043 143.348 6.74043C141.55 6.74043 140.186 6.74043 138.947 6.80283C134.607 7.11484 132.995 8.92448 132.995 13.5422V22.7152C132.995 24.8369 133.305 27.3953 135.661 28.5186C137.397 29.3922 139.753 29.3922 143.348 29.3922C145.084 29.3922 146.572 29.3922 147.812 29.3298C149.237 29.2674 150.353 29.0178 151.283 28.6434C153.391 27.7697 154.383 25.7729 154.383 22.5904V13.4174C154.445 10.4221 153.391 8.42527 151.283 7.48924ZM150.663 13.6046V22.6528C150.663 24.7745 150.291 24.9617 149.795 25.1489C148.927 25.5233 146.758 25.5857 144.092 25.5857H142.79C139.876 25.5857 138.079 25.5233 137.459 25.2113C137.211 25.0865 136.839 24.8993 136.839 22.6528V13.6046C136.839 11.3581 137.211 11.1709 137.397 11.0461C138.141 10.6717 140.372 10.6093 142.79 10.6093H144.092C146.758 10.6093 148.866 10.6717 149.795 11.0461C150.229 11.2333 150.663 11.4205 150.663 13.6046Z" fill="#414042"/>
<path d="M175.647 6.92764H157.359C156.305 6.92764 155.437 7.80126 155.437 8.86208C155.437 9.92291 156.305 10.7965 157.359 10.7965H164.488V27.5201C164.488 28.581 165.356 29.4546 166.41 29.4546C167.463 29.4546 168.331 28.581 168.331 27.5201V10.7341H175.709C176.762 10.7341 177.63 9.86051 177.63 8.79968C177.568 7.73886 176.7 6.92764 175.647 6.92764Z" fill="#414042"/>
<path d="M186.061 16.1007C185.008 16.1007 183.83 16.9743 183.83 18.0351C183.83 19.0959 185.008 19.9695 186.061 19.9695H194.802C195.856 19.9695 196.724 19.0959 196.724 18.0351C196.724 16.9743 195.856 16.1007 194.802 16.1007H186.061Z" fill="#414042"/>
<path d="M223.319 26.0849L215.26 18.0975L223.319 10.1101C223.691 9.7357 223.877 9.23649 223.877 8.73727C223.877 8.23806 223.691 7.86365 223.505 7.55164L223.381 7.36444C222.885 6.86523 222.265 6.80283 221.955 6.80283C221.46 6.80283 220.964 6.99003 220.592 7.36444L212.532 15.3518L204.473 7.36444C204.101 7.05243 203.605 6.86523 203.172 6.86523C202.118 6.86523 201.25 7.73885 201.25 8.79968C201.25 9.29889 201.436 9.7981 201.808 10.1725L209.929 18.1599L201.808 26.1473C201.436 26.5217 201.25 27.0209 201.25 27.5201C201.25 28.581 202.118 29.4546 203.172 29.4546C203.729 29.4546 204.163 29.2674 204.535 28.893L212.594 20.9056L220.654 28.8306C221.026 29.205 221.522 29.3922 222.017 29.3922C222.575 29.3922 223.009 29.205 223.443 28.7682C223.753 28.3938 223.939 27.957 223.939 27.4577C223.877 26.9585 223.691 26.5217 223.319 26.0849Z" fill="#414042"/>
<path d="M197.964 25.5857C197.964 25.5857 189.967 25.5857 185.194 25.5857C183.148 25.5857 182.962 25.2113 182.776 24.6497C182.342 23.5888 182.28 21.1552 182.28 18.0351C182.28 14.6654 182.28 12.5438 182.714 11.6077C182.9 11.1709 183.086 10.7965 185.194 10.7965H197.654C198.708 10.7965 199.576 9.92291 199.576 8.86208C199.576 7.80126 198.708 6.92764 197.654 6.92764H185.194C182.094 6.92764 180.11 7.92606 179.18 10.1101C178.808 11.0461 178.56 12.1694 178.498 13.5422C178.436 14.7902 178.436 16.2879 178.436 18.0351C178.436 21.8416 178.498 24.2753 179.242 26.1473C180.11 28.3314 182.156 29.4546 185.194 29.4546H197.964C198.956 29.4546 199.762 28.7058 199.886 27.5825C199.886 26.4593 199.018 25.5857 197.964 25.5857Z" fill="#414042"/>
<path d="M81.3549 6.99004C80.859 6.92763 80.425 6.92764 79.9291 6.92764H68.6463C68.1504 6.92764 67.7164 7.11484 67.3445 7.42685L67.2825 7.48925C66.9725 7.86366 66.7865 8.30047 66.7865 8.79968V17.3487H57.7975C56.8056 17.3487 56.4956 17.2863 56.3717 17.2239C56.3097 17.0991 55.9997 16.4751 55.9997 14.4782V14.291C55.9997 12.3566 56.2477 11.7326 56.3717 11.6078C56.4956 11.5454 56.8056 11.4829 57.6735 11.4829H63.0049C64.0588 11.4829 64.9267 10.6093 64.9267 9.5485C64.9267 8.48767 64.0588 7.61405 63.0049 7.61405H57.9215C57.2396 7.61405 56.5576 7.61405 55.9377 7.67645C55.0078 7.86366 54.3259 8.17566 53.7679 8.73728C52.4661 9.98531 52.2181 11.8574 52.2181 14.3534C52.2181 16.9119 52.4661 18.7839 53.7679 19.9696C54.3879 20.5312 55.1318 20.9056 55.9997 21.0304C56.4956 21.0928 56.9296 21.0928 57.4255 21.0928H66.7865V27.3953C66.7865 28.4562 67.6544 29.3298 68.7083 29.3298C69.7622 29.3298 70.6301 28.4562 70.6301 27.3953V10.6717H79.6191C80.611 10.6717 80.921 10.7341 81.0449 10.7965C81.1069 10.9213 81.4169 11.5453 81.4169 13.5422V13.7294C81.4169 15.6639 81.1689 16.2879 81.0449 16.4127C80.921 16.4751 80.611 16.5375 79.7431 16.5375H74.4117C73.3578 16.5375 72.4899 17.4111 72.4899 18.4719C72.4899 19.5327 73.3578 20.4064 74.4117 20.4064H79.4951C80.177 20.4064 80.859 20.4064 81.4789 20.344C82.4088 20.1568 83.0907 19.8448 83.6487 19.2831C84.9505 18.0351 85.1985 16.1631 85.1985 13.667C85.1985 11.1085 84.9505 9.23649 83.6487 8.05086C82.9667 7.42685 82.2228 7.05244 81.3549 6.99004Z" fill="#414042"/>
<path d="M39.4475 1.9355C36.6578 0.68747 30.3965 0.625069 22.4614 0.625069H18.4938C9.87678 0.625069 4.48337 0.812273 2.3756 1.8731C1.44571 2.37231 0.515808 3.37074 0.515808 9.7357V36.5684C0.515808 43.3077 1.56969 43.9317 2.4376 44.431C4.48337 45.4294 9.87677 45.6166 18.4318 45.6166H22.2134C30.2105 45.6166 36.5958 45.4918 39.2615 44.3061C40.9354 43.5573 41.9892 42.8085 41.9892 36.5684V9.7357C42.1132 3.12113 40.8114 2.55952 39.4475 1.9355Z" fill="#F15D22"/>
<path d="M22.4614 13.355V17.7231V21.7168V40.4373C22.4614 41.0613 22.5854 41.6229 22.8333 41.9973C22.9573 42.1845 23.1433 42.3093 23.2673 42.3093C23.3913 42.3093 23.5153 42.2469 23.5772 42.1221L29.5906 36.1315C29.9005 35.8195 30.0865 35.1955 30.0865 34.4467V4.80597C30.0865 4.11955 29.5286 3.05873 29.2186 3.68274L22.4614 13.355ZM29.2186 3.68274L26.6149 6.24121L23.2673 10.1101C23.2673 10.1101 23.5153 9.73569 23.2673 10.1101C22.4614 11.4829 22.4614 12.9806 22.4614 13.6046L29.2186 3.68274ZM24.3832 37.3172V21.0928V17.0991V12.9182L28.2887 8.61246V33.6355L24.3832 37.3172Z" fill="white"/>
<path d="M19.5477 41.7477C8.88488 27.5201 26.5529 18.0351 17.3779 7.86364C20.2916 18.1599 11.0546 20.4688 11.3026 28.3938C11.4886 34.3219 23.0193 46.4278 19.5477 41.7477Z" fill="white"/>
<path d="M55.1938 44.9926V39.314H53.21V38.69H57.9835V39.314H55.9997V44.9926H55.1938Z" fill="#414042"/>
<path d="M58.9134 44.9926V38.69H62.757V39.314H59.7193V41.3733H62.261V41.9349H59.7193V44.3686H62.8809V44.9926H58.9134Z" fill="#414042"/>
<path d="M64.4927 40.1876C64.1828 39.6884 63.8728 39.1892 63.5628 38.69H64.4308C64.6787 39.1268 64.9267 39.5636 65.1747 39.938C65.4227 40.3749 65.6706 40.7493 65.9186 41.1861L67.4064 38.69H68.2743C67.9644 39.1892 67.5924 39.6884 67.2824 40.2501C66.9725 40.7493 66.6625 41.2485 66.2905 41.8101L68.2743 45.055H67.4064C67.1585 44.6182 66.8485 44.1189 66.6005 43.6821C66.3525 43.2453 66.0426 42.7461 65.7946 42.3093L64.1828 45.055H63.3149L65.2987 41.7477C65.1127 41.1861 64.8027 40.6869 64.4927 40.1876Z" fill="#414042"/>
<path d="M72.8618 44.9926V41.9973H69.9482C69.9482 42.4965 69.9482 42.9957 69.9482 43.4949C69.9482 43.9941 69.9482 44.4934 69.9482 44.9926H69.1422V38.69H69.9482C69.9482 39.1268 69.9482 39.5636 69.9482 40.0004C69.9482 40.4373 69.9482 40.8741 69.9482 41.3109H72.8618V38.6276H73.6677V44.9302H72.8618V44.9926Z" fill="#414042"/>
<path d="M80.239 41.8725C80.239 42.3093 80.1771 42.7461 80.0531 43.1205C79.9291 43.4949 79.8051 43.8693 79.5571 44.1189C79.3711 44.431 79.0612 44.6182 78.7512 44.8054C78.4412 44.9926 78.0693 45.055 77.6353 45.055C77.1394 45.055 76.7054 44.9926 76.3955 44.8054C76.0855 44.6806 75.7755 44.431 75.5895 44.1813C75.4036 43.9317 75.2176 43.5573 75.0936 43.1829C74.9696 42.8085 74.9696 42.3717 74.9696 41.8725C74.9696 41.4357 75.0316 40.9989 75.0936 40.6245C75.2176 40.2501 75.3416 39.8756 75.5276 39.5636C75.7135 39.2516 76.0235 39.002 76.3335 38.8148C76.7054 38.6276 77.0774 38.5652 77.5733 38.5652C78.0693 38.5652 78.5032 38.6276 78.8132 38.8148C79.1232 39.002 79.4331 39.2516 79.6191 39.5636C79.8051 39.8756 79.9291 40.1877 80.0531 40.6245C80.1771 40.9989 80.239 41.4357 80.239 41.8725ZM79.4331 41.8725C79.4331 41.5605 79.4331 41.2485 79.3711 40.9365C79.3091 40.6245 79.2472 40.3125 79.1232 40.0628C78.9992 39.8132 78.8132 39.5636 78.5652 39.4388C78.3172 39.2516 78.0073 39.1892 77.6353 39.1892C77.2634 39.1892 76.9534 39.2516 76.7054 39.4388C76.4574 39.5636 76.2715 39.8132 76.1475 40.0628C76.0235 40.3125 75.8995 40.6245 75.8375 40.9365C75.7755 41.2485 75.7755 41.6229 75.7755 41.9349C75.7755 42.7461 75.8995 43.4325 76.2095 43.8693C76.5194 44.3062 76.9534 44.4934 77.6353 44.4934C77.9453 44.4934 78.1933 44.431 78.4412 44.3062C78.6892 44.1814 78.8752 43.9941 78.9992 43.7445C79.1232 43.4949 79.2471 43.2453 79.3091 42.9333C79.3711 42.5589 79.4331 42.2469 79.4331 41.8725Z" fill="#414042"/>
<path d="M85.1985 44.9926V39.2516H83.1527V39.8756C83.1527 40.4373 83.0907 40.9989 83.0907 41.4357C83.0907 41.8725 83.0287 42.3093 82.9668 42.6837C82.9048 43.0581 82.8428 43.3701 82.7808 43.6821C82.7188 43.9941 82.5948 44.1813 82.4708 44.431C82.3468 44.6182 82.1608 44.8054 81.9129 44.9302C81.6649 45.055 81.4169 45.1174 81.107 45.1798L80.983 44.6182C81.3549 44.4934 81.6029 44.3686 81.7889 44.1813C81.9749 43.9941 82.0988 43.7445 82.2228 43.4325C82.3468 43.1205 82.4088 42.6837 82.4088 42.1845C82.4708 41.6853 82.4708 40.9989 82.5328 40.1877L82.5948 38.69H86.0664V44.9926H85.1985Z" fill="#414042"/>
<path d="M92.5137 41.8725C92.5137 42.3093 92.4517 42.7461 92.3277 43.1205C92.2037 43.4949 92.0797 43.8693 91.8318 44.1189C91.6458 44.431 91.3358 44.6182 91.0259 44.8054C90.7159 44.9926 90.3439 45.055 89.91 45.055C89.414 45.055 88.9801 44.9926 88.6701 44.8054C88.3601 44.6806 88.0502 44.431 87.8642 44.1813C87.6162 43.9317 87.4922 43.5573 87.3682 43.1829C87.2443 42.8085 87.2443 42.3717 87.2443 41.8725C87.2443 41.4357 87.3063 40.9989 87.3682 40.6245C87.4922 40.2501 87.6162 39.8756 87.8022 39.5636C87.9882 39.2516 88.2981 39.002 88.6081 38.8148C88.9801 38.6276 89.352 38.5652 89.848 38.5652C90.3439 38.5652 90.7779 38.6276 91.0878 38.8148C91.3978 39.002 91.7078 39.2516 91.8938 39.5636C92.0797 39.8756 92.2037 40.1877 92.3277 40.6245C92.5137 40.9989 92.5137 41.4357 92.5137 41.8725ZM91.7078 41.8725C91.7078 41.5605 91.7078 41.2485 91.6458 40.9365C91.5838 40.6245 91.5218 40.3125 91.3978 40.0628C91.2738 39.8132 91.0878 39.5636 90.8399 39.4388C90.5919 39.2516 90.2819 39.1892 89.91 39.1892C89.538 39.1892 89.228 39.2516 88.9801 39.4388C88.7321 39.5636 88.5461 39.8132 88.4221 40.0628C88.2982 40.3125 88.1742 40.6245 88.1122 40.9365C88.0502 41.2485 88.0502 41.6229 88.0502 41.9349C88.0502 42.7461 88.1742 43.4325 88.4841 43.8693C88.7941 44.3062 89.228 44.4934 89.91 44.4934C90.2199 44.4934 90.4679 44.431 90.7159 44.3062C90.9639 44.1814 91.1498 43.9941 91.2738 43.7445C91.3978 43.4949 91.5218 43.2453 91.5838 42.9333C91.7078 42.5589 91.7078 42.2469 91.7078 41.8725Z" fill="#414042"/>
<path d="M93.8156 44.9926V38.69H97.5971V39.314H94.5595V44.9926H93.8156Z" fill="#414042"/>
<path d="M103.486 38.69V44.9926H102.743V39.8756L99.6429 44.9926H98.899V38.69H99.6429V43.7445L102.743 38.6276L103.486 38.69Z" fill="#414042"/>
<path d="M109.562 38.69V44.9926H108.818V39.8756L105.718 44.9926H104.974V38.69H105.718V43.7445L108.818 38.6276L109.562 38.69Z" fill="#414042"/>
<path d="M116.195 41.4981C116.567 41.5605 116.815 41.7477 117.063 42.0597C117.249 42.3093 117.373 42.6837 117.373 43.0581C117.373 43.3701 117.311 43.6821 117.187 43.9317C117.063 44.1813 116.877 44.3685 116.629 44.5557C116.381 44.7429 116.133 44.8678 115.885 44.9302C115.575 44.9926 115.265 45.055 114.955 45.055C114.645 45.055 114.273 45.055 113.901 44.9926C113.529 44.9302 113.219 44.8678 112.909 44.743L113.095 44.1813C113.467 44.3061 113.715 44.3685 114.025 44.4309C114.273 44.4933 114.521 44.4933 114.707 44.4933C115.327 44.4933 115.823 44.3685 116.133 44.1189C116.443 43.8693 116.629 43.5573 116.629 43.1205C116.629 42.9333 116.567 42.7461 116.505 42.6213C116.443 42.4965 116.319 42.3717 116.195 42.2469C116.071 42.1221 115.885 42.0597 115.699 41.9973C115.513 41.9349 115.327 41.9349 115.079 41.9349H114.335V41.3109H115.079C115.327 41.3109 115.513 41.3109 115.699 41.2485C115.885 41.1861 116.009 41.1237 116.133 40.9989C116.257 40.8741 116.319 40.7493 116.443 40.6245C116.505 40.4996 116.567 40.3748 116.567 40.1876C116.567 39.8132 116.443 39.5636 116.195 39.4388C115.947 39.314 115.637 39.1892 115.203 39.1892C115.017 39.1892 114.831 39.1892 114.521 39.2516C114.211 39.314 113.901 39.3764 113.591 39.5636L113.405 39.0644C113.529 39.002 113.653 38.9396 113.777 38.8772C113.901 38.8148 114.087 38.7524 114.273 38.7524C114.459 38.69 114.583 38.69 114.769 38.69C114.955 38.69 115.141 38.6276 115.265 38.6276C115.575 38.6276 115.823 38.6276 116.071 38.69C116.319 38.7524 116.567 38.8148 116.753 38.9396C116.939 39.0644 117.125 39.1892 117.187 39.4388C117.311 39.626 117.373 39.8756 117.373 40.1252C117.373 40.25 117.373 40.3748 117.311 40.4996C117.249 40.6244 117.187 40.7493 117.125 40.8741C117.063 40.9989 116.939 41.1237 116.815 41.1861C116.505 41.3109 116.381 41.3733 116.195 41.4981Z" fill="#414042"/>
<path d="M122.208 44.9926C122.146 44.743 122.022 44.431 121.96 44.1814C121.898 43.9317 121.774 43.6197 121.712 43.3701H119.233C119.171 43.6197 119.047 43.9317 118.985 44.1814C118.923 44.431 118.799 44.743 118.737 44.9926H117.931C118.303 43.8693 118.675 42.7461 118.985 41.6853C119.357 40.6245 119.667 39.626 119.977 38.69H120.969L123.014 44.9926H122.208ZM121.527 42.7461C121.403 42.3093 121.217 41.8101 121.093 41.3109C120.969 40.8117 120.783 40.3749 120.659 39.938L120.473 39.314L120.287 39.938C120.225 40.1877 120.163 40.3749 120.101 40.6245C120.039 40.8117 119.977 41.0613 119.915 41.3109C119.853 41.5605 119.791 41.7477 119.729 41.9973C119.667 42.2469 119.605 42.4965 119.481 42.7461H121.527Z" fill="#414042"/>
<path d="M123.82 38.69H124.564V44.431H126.858V38.69H127.664V44.431H129.896V38.69H130.702V44.431H131.321V46.5526H130.702V44.9926H123.82V38.69Z" fill="#414042"/>
<path d="M136.963 38.69V44.9926H136.219V39.8756L133.119 44.9926H132.375V38.69H133.119V43.7445L136.219 38.6276L136.963 38.69Z" fill="#414042"/>
<path d="M139.938 44.9926V39.314H137.955V38.69H142.728V39.314H140.744V44.9926H139.938Z" fill="#414042"/>
<path d="M147.316 44.9926V41.9973H144.402C144.402 42.4965 144.402 42.9957 144.402 43.4949C144.402 43.9941 144.402 44.4934 144.402 44.9926H143.596V38.69H144.402C144.402 39.1268 144.402 39.5636 144.402 40.0004C144.402 40.4373 144.402 40.8741 144.402 41.3109H147.316V38.6276H148.122V44.9302H147.316V44.9926Z" fill="#414042"/>
<path d="M154.693 41.8725C154.693 42.3093 154.631 42.7461 154.507 43.1205C154.383 43.4949 154.259 43.8693 154.011 44.1189C153.825 44.431 153.515 44.6182 153.205 44.8054C152.895 44.9926 152.523 45.055 152.089 45.055C151.593 45.055 151.159 44.9926 150.849 44.8054C150.539 44.6806 150.229 44.431 150.043 44.1813C149.857 43.9317 149.671 43.5573 149.547 43.1829C149.423 42.8085 149.423 42.3717 149.423 41.8725C149.423 41.4357 149.485 40.9989 149.547 40.6245C149.671 40.2501 149.795 39.8756 149.981 39.5636C150.167 39.2516 150.477 39.002 150.787 38.8148C151.159 38.6276 151.531 38.5652 152.027 38.5652C152.523 38.5652 152.957 38.6276 153.267 38.8148C153.577 39.002 153.887 39.2516 154.073 39.5636C154.259 39.8756 154.383 40.1877 154.507 40.6245C154.631 40.9989 154.693 41.4357 154.693 41.8725ZM153.887 41.8725C153.887 41.5605 153.887 41.2485 153.825 40.9365C153.763 40.6245 153.701 40.3125 153.577 40.0628C153.453 39.8132 153.267 39.5636 153.019 39.4388C152.771 39.2516 152.461 39.1892 152.089 39.1892C151.717 39.1892 151.407 39.2516 151.159 39.4388C150.911 39.5636 150.725 39.8132 150.601 40.0628C150.477 40.3125 150.353 40.6245 150.291 40.9365C150.229 41.2485 150.229 41.6229 150.229 41.9349C150.229 42.7461 150.353 43.4325 150.663 43.8693C150.973 44.3062 151.407 44.4934 152.089 44.4934C152.399 44.4934 152.647 44.431 152.895 44.3062C153.143 44.1814 153.329 43.9941 153.453 43.7445C153.577 43.4949 153.701 43.2453 153.763 42.9333C153.825 42.5589 153.887 42.2469 153.887 41.8725Z" fill="#414042"/>
<path d="M155.995 44.9926V38.69H159.776V39.314H156.739V44.9926H155.995Z" fill="#414042"/>
<path d="M165.232 41.8725C165.232 42.3093 165.17 42.7461 165.046 43.1205C164.922 43.4949 164.798 43.8693 164.55 44.1189C164.364 44.431 164.054 44.6182 163.744 44.8054C163.434 44.9926 163.062 45.055 162.628 45.055C162.132 45.055 161.698 44.9926 161.388 44.8054C161.078 44.6806 160.768 44.431 160.582 44.1813C160.396 43.9317 160.21 43.5573 160.086 43.1829C159.962 42.8085 159.962 42.3717 159.962 41.8725C159.962 41.4357 160.024 40.9989 160.086 40.6245C160.21 40.2501 160.334 39.8756 160.52 39.5636C160.706 39.2516 161.016 39.002 161.326 38.8148C161.698 38.6276 162.07 38.5652 162.566 38.5652C163.062 38.5652 163.496 38.6276 163.806 38.8148C164.116 39.002 164.426 39.2516 164.612 39.5636C164.798 39.8756 164.922 40.1877 165.046 40.6245C165.232 40.9989 165.232 41.4357 165.232 41.8725ZM164.426 41.8725C164.426 41.5605 164.426 41.2485 164.364 40.9365C164.302 40.6245 164.24 40.3125 164.116 40.0628C163.992 39.8132 163.806 39.5636 163.558 39.4388C163.31 39.2516 163 39.1892 162.628 39.1892C162.256 39.1892 161.946 39.2516 161.698 39.4388C161.45 39.5636 161.264 39.8132 161.14 40.0628C161.016 40.3125 160.892 40.6245 160.83 40.9365C160.768 41.2485 160.768 41.6229 160.768 41.9349C160.768 42.7461 160.892 43.4325 161.202 43.8693C161.512 44.3062 161.946 44.4934 162.628 44.4934C162.938 44.4934 163.186 44.431 163.434 44.3062C163.682 44.1814 163.868 43.9941 163.992 43.7445C164.116 43.4949 164.24 43.2453 164.302 42.9333C164.426 42.5589 164.426 42.2469 164.426 41.8725Z" fill="#414042"/>
<path d="M174.159 41.8725C174.159 42.3093 174.097 42.7461 173.973 43.1205C173.849 43.4949 173.725 43.8693 173.477 44.1189C173.229 44.431 172.981 44.6182 172.671 44.8054C172.361 44.9926 171.989 45.055 171.555 45.055C171.059 45.055 170.625 44.9926 170.315 44.8054C170.005 44.6806 169.695 44.431 169.509 44.1813C169.261 43.9317 169.137 43.5573 169.013 43.1829C168.889 42.8085 168.889 42.3717 168.889 41.8725C168.889 41.4357 168.951 40.9989 169.013 40.6245C169.137 40.2501 169.261 39.8756 169.447 39.5636C169.633 39.2516 169.943 39.002 170.253 38.8148C170.625 38.6276 170.997 38.5652 171.493 38.5652C171.989 38.5652 172.423 38.6276 172.733 38.8148C173.043 39.002 173.353 39.2516 173.539 39.5636C173.725 39.8756 173.849 40.1877 173.973 40.6245C174.097 40.9989 174.159 41.4357 174.159 41.8725ZM173.291 41.8725C173.291 41.5605 173.291 41.2485 173.229 40.9365C173.167 40.6245 173.105 40.3125 172.981 40.0628C172.857 39.8132 172.671 39.5636 172.423 39.4388C172.175 39.2516 171.865 39.1892 171.493 39.1892C171.121 39.1892 170.811 39.2516 170.563 39.4388C170.315 39.5636 170.129 39.8132 170.005 40.0628C169.881 40.3125 169.757 40.6245 169.695 40.9365C169.633 41.2485 169.633 41.6229 169.633 41.9349C169.633 42.7461 169.757 43.4325 170.067 43.8693C170.377 44.3062 170.811 44.4934 171.493 44.4934C171.803 44.4934 172.051 44.431 172.299 44.3062C172.547 44.1814 172.733 43.9941 172.857 43.7445C172.981 43.4949 173.105 43.2453 173.167 42.9333C173.291 42.5589 173.291 42.2469 173.291 41.8725Z" fill="#414042"/>
<path d="M178.002 38.5652C178.374 38.5652 178.622 38.5652 178.932 38.6276C179.18 38.69 179.428 38.7524 179.614 38.8148L179.428 39.3764C179.18 39.314 178.932 39.2516 178.684 39.1892C178.436 39.1892 178.25 39.1268 178.064 39.1268C177.692 39.1268 177.444 39.1892 177.196 39.314C176.948 39.4388 176.762 39.626 176.576 39.8132C176.39 40.0628 176.267 40.3125 176.205 40.6869C176.143 40.9989 176.081 41.3733 176.081 41.8101C176.081 42.1845 176.081 42.4965 176.143 42.8085C176.205 43.1205 176.329 43.3701 176.452 43.6197C176.576 43.8693 176.824 44.0565 177.072 44.1814C177.32 44.3062 177.692 44.3686 178.064 44.3686C178.126 44.3686 178.25 44.3686 178.374 44.3686C178.498 44.3686 178.622 44.3686 178.746 44.3062C178.87 44.3062 178.994 44.2438 179.18 44.2438C179.304 44.2438 179.428 44.1814 179.552 44.1189L179.676 44.6806C179.552 44.743 179.428 44.743 179.304 44.8054C179.18 44.8678 178.994 44.8678 178.87 44.8678C178.684 44.8678 178.56 44.9302 178.374 44.9302C178.188 44.9302 178.064 44.9302 177.94 44.9302C177.444 44.9302 177.01 44.8678 176.7 44.6806C176.329 44.5558 176.081 44.3062 175.895 44.0565C175.709 43.8069 175.523 43.4325 175.461 43.0581C175.337 42.6837 175.337 42.2469 175.337 41.7477C175.337 41.4981 175.337 41.3109 175.399 41.0613C175.461 40.8117 175.461 40.5621 175.585 40.3125C175.647 40.0628 175.771 39.8132 175.895 39.626C176.019 39.3764 176.205 39.1892 176.39 39.0644C176.576 38.8772 176.824 38.7524 177.134 38.69C177.32 38.6276 177.63 38.5652 178.002 38.5652Z" fill="#414042"/>
<path d="M182.28 44.9926V39.314H180.296V38.69H185.07V39.314H183.086V44.9926H182.28Z" fill="#414042"/>
<path d="M185.999 44.9926V38.69H189.843V39.314H186.805V41.3733H189.347V41.9349H186.805V44.3686H189.967V44.9926H185.999Z" fill="#414042"/>
<path d="M191.145 44.9926V38.69H191.951V41.3109H193.067C193.191 41.3109 193.253 41.3109 193.377 41.2485C193.501 41.2485 193.625 41.1861 193.687 41.1237C193.811 41.0613 193.873 40.9365 193.997 40.8117C194.059 40.6869 194.183 40.4997 194.183 40.3125L194.616 38.69H195.36L194.988 40.3749C194.926 40.6869 194.802 40.9365 194.616 41.1237C194.492 41.3109 194.306 41.4981 194.059 41.5605C194.368 41.6229 194.616 41.7477 194.802 41.9973C194.988 42.1845 195.112 42.4341 195.174 42.7461L195.732 44.9926H194.988L194.43 42.9957C194.368 42.8085 194.306 42.6213 194.183 42.4965C194.059 42.3717 193.997 42.2469 193.873 42.1845C193.749 42.1221 193.625 42.0597 193.501 42.0597C193.377 42.0597 193.253 41.9973 193.129 41.9973H192.013V45.055H191.145V44.9926Z" fill="#414042"/>
<path d="M200.196 44.9926V39.2516H198.15V39.8756C198.15 40.4373 198.088 40.9989 198.088 41.4357C198.088 41.8725 198.026 42.3093 197.964 42.6837C197.902 43.0581 197.84 43.3701 197.778 43.6821C197.716 43.9941 197.592 44.1813 197.468 44.431C197.344 44.6182 197.158 44.8054 196.91 44.9302C196.662 45.055 196.414 45.1174 196.104 45.1798L195.98 44.6182C196.352 44.4934 196.6 44.3686 196.786 44.1813C196.972 43.9941 197.096 43.7445 197.22 43.4325C197.344 43.1205 197.406 42.6837 197.406 42.1845C197.468 41.6853 197.468 40.9989 197.53 40.1877L197.592 38.69H201.064V44.9926H200.196Z" fill="#414042"/>
<path d="M202.49 44.9926V38.69H206.333V39.314H203.296V41.3733H205.837V41.9349H203.296V44.3686H206.457V44.9926H202.49Z" fill="#414042"/>
<path d="M211.355 44.9926V41.9973H208.441C208.441 42.4965 208.441 42.9957 208.441 43.4949C208.441 43.9941 208.441 44.4934 208.441 44.9926H207.635V38.69H208.441C208.441 39.1268 208.441 39.5636 208.441 40.0004C208.441 40.4373 208.441 40.8741 208.441 41.3109H211.355V38.6276H212.161V44.9302H211.355V44.9926Z" fill="#414042"/>
<path d="M218.236 38.69V44.9926H217.492V39.8756L214.392 44.9926H213.586V38.69H214.33V43.7445L217.43 38.6276L218.236 38.69Z" fill="#414042"/>
<path d="M219.662 40.4373C219.662 40.1877 219.724 39.938 219.786 39.7508C219.848 39.5636 219.972 39.3764 220.158 39.1892C220.344 39.002 220.53 38.9396 220.716 38.8148C220.964 38.7524 221.212 38.69 221.522 38.69H223.691V44.9926H222.885V42.2469H222.079C221.893 42.2469 221.769 42.2469 221.584 42.3093C221.46 42.3093 221.274 42.3717 221.15 42.4341C221.026 42.4965 220.902 42.6213 220.84 42.7461C220.716 42.8709 220.654 43.0581 220.592 43.2453L220.096 44.9926H219.29L219.786 43.1829C219.848 42.9333 219.972 42.6837 220.096 42.4965C220.22 42.3093 220.406 42.1221 220.654 42.0597C220.282 41.9349 220.034 41.7477 219.848 41.4357C219.724 41.1861 219.662 40.8117 219.662 40.4373ZM222.885 41.6229V39.2516H221.646C221.46 39.2516 221.336 39.2516 221.15 39.314C221.026 39.3764 220.902 39.4388 220.778 39.5012C220.654 39.626 220.592 39.7508 220.53 39.8756C220.468 40.0004 220.468 40.1877 220.468 40.4373C220.468 40.6869 220.53 40.8741 220.592 41.0613C220.654 41.1861 220.778 41.3109 220.902 41.4357C221.026 41.4981 221.15 41.5605 221.274 41.6229C221.398 41.6229 221.522 41.6853 221.646 41.6853H222.885V41.6229Z" fill="#414042"/>
</svg>
